<svg id="_x31__px" height="512" viewBox="0 0 24 24" width="512" xmlns="http://www.w3.org/2000/svg"><path d="m15.5 15h-8c-.238 0-.443-.168-.49-.402l-1-5c-.03-.147.009-.299.103-.415s.238-.183.387-.183h9.859l.655-2.621c.066-.268.333-.433.606-.364.269.067.431.338.364.606l-2 8c-.054.223-.255.379-.484.379zm-7.59-1h7.199l1-4h-8.999z"/><path d="m10 18c-.551 0-1-.448-1-1s.449-1 1-1 1 .448 1 1-.449 1-1 1z"/><path d="m14 18c-.551 0-1-.448-1-1s.449-1 1-1 1 .448 1 1-.449 1-1 1z"/><path d="m12 24c-6.617 0-12-5.383-12-12s5.383-12 12-12 12 5.383 12 12-5.383 12-12 12zm0-23c-6.065 0-11 4.935-11 11s4.935 11 11 11 11-4.935 11-11-4.935-11-11-11z"/></svg>